# xmcd
# 
# Track frame offsets:
#     150
#     14837
#     38792
#     62437
#     76477
#     92450
#     116222
#     132695
#     151047
#     169002
#     192695
# 
# Disc length: 2832
# 
# Revision: 7
# Processed by: cddbd v1.5.2PL0 Copyright (c) Steve Scherf et al.
# Submitted via: fre:ac v1.0.31
# 
DISCID=920b0e0b
DTITLE=Cowboy Junkies - Rarities, B-Sides and Slow, Sad Waltzes
DYEAR=1999
DGENRE=Folk/Country
TTITLE0=I Saw Your Shoes
TTITLE1=Five Room Love Story
TTITLE2=Sad to See the Season Go
TTITLE3=If You Gotta Go, Go Now
TTITLE4=Love's Still There
TTITLE5=To Lay Me Down
TTITLE6=A Few Simple Words
TTITLE7=River Waltz
TTITLE8=Leaving Normal
TTITLE9=The Water Is Wide
TTITLE10=My Father's House
EXTD=YEAR: 2000 ID3G: 2
EXTT0=
EXTT1=
EXTT2=
EXTT3=
EXTT4=
EXTT5=
EXTT6=
EXTT7=
EXTT8=
EXTT9=
EXTT10=
PLAYORDER=
